<mxfile host="app.diagrams.net" modified="2024-03-29T17:15:16.899Z" agent="Mozilla/5.0 (X11; Ubuntu; Linux x86_64; rv:124.0) Gecko/20100101 Firefox/124.0" etag="MjbLWtb09GrSFxYNRxNx" version="24.2.1" type="github">
  <diagram name="Page-1" id="TK9vxGGPSExb20pd-Vpa">
    <mxGraphModel dx="1434" dy="894" grid="1" gridSize="10" guides="1" tooltips="1" connect="1" arrows="1" fold="1" page="1" pageScale="1" pageWidth="850" pageHeight="1100" math="0" shadow="0">
      <root>
        <mxCell id="0" />
        <mxCell id="1" parent="0" />
        <mxCell id="gC0QYWkLjpjmnDlQ5VpR-1" value="" style="rounded=1;whiteSpace=wrap;html=1;" vertex="1" parent="1">
          <mxGeometry x="30" y="171" width="180" height="218" as="geometry" />
        </mxCell>
        <mxCell id="gC0QYWkLjpjmnDlQ5VpR-2" value="&lt;div&gt;DNS:&amp;nbsp;&lt;/div&gt;&lt;div&gt;(www.foobar.com)&lt;/div&gt;&lt;div&gt;ip address: 8.8.8.8&lt;br&gt;&lt;/div&gt;" style="ellipse;shape=cloud;whiteSpace=wrap;html=1;" vertex="1" parent="1">
          <mxGeometry x="350" y="190" width="180" height="140" as="geometry" />
        </mxCell>
        <mxCell id="gC0QYWkLjpjmnDlQ5VpR-3" value="" style="endArrow=classic;startArrow=classic;html=1;rounded=0;entryX=0.16;entryY=0.55;entryDx=0;entryDy=0;entryPerimeter=0;exitX=1.011;exitY=0.454;exitDx=0;exitDy=0;exitPerimeter=0;" edge="1" parent="1" source="gC0QYWkLjpjmnDlQ5VpR-1" target="gC0QYWkLjpjmnDlQ5VpR-2">
          <mxGeometry width="50" height="50" relative="1" as="geometry">
            <mxPoint x="220" y="287" as="sourcePoint" />
            <mxPoint x="358.79999999999995" y="282.5" as="targetPoint" />
          </mxGeometry>
        </mxCell>
        <UserObject label="www.foobar.com" id="gC0QYWkLjpjmnDlQ5VpR-11">
          <mxCell style="sketch=0;outlineConnect=0;fontColor=#232F3E;gradientColor=none;strokeColor=#232F3E;fillColor=#ffffff;dashed=0;verticalLabelPosition=bottom;verticalAlign=top;align=center;html=1;fontSize=12;fontStyle=0;aspect=fixed;shape=mxgraph.aws4.resourceIcon;resIcon=mxgraph.aws4.client;" vertex="1" parent="1">
            <mxGeometry x="62.5" y="200" width="120" height="120" as="geometry" />
          </mxCell>
        </UserObject>
        <mxCell id="gC0QYWkLjpjmnDlQ5VpR-12" value="&lt;div&gt;Web Server (NGNX)&lt;/div&gt;&lt;div&gt;App Server (Python)&lt;/div&gt;&lt;div&gt;DataBase(SQL)&lt;/div&gt;&lt;div&gt;&lt;br&gt;&lt;/div&gt;&lt;div&gt;CODEBASE&lt;br&gt;&lt;/div&gt;" style="whiteSpace=wrap;html=1;aspect=fixed;" vertex="1" parent="1">
          <mxGeometry x="345" y="740" width="125" height="125" as="geometry" />
        </mxCell>
        <mxCell id="gC0QYWkLjpjmnDlQ5VpR-13" value="" style="points=[[0.35,0,0],[0.98,0.51,0],[1,0.71,0],[0.67,1,0],[0,0.795,0],[0,0.65,0]];verticalLabelPosition=bottom;sketch=0;html=1;verticalAlign=top;aspect=fixed;align=center;pointerEvents=1;shape=mxgraph.cisco19.user;fillColor=#005073;strokeColor=none;" vertex="1" parent="1">
          <mxGeometry x="60" y="20" width="120" height="120" as="geometry" />
        </mxCell>
        <mxCell id="gC0QYWkLjpjmnDlQ5VpR-14" value="http:\\" style="rounded=1;whiteSpace=wrap;html=1;" vertex="1" parent="1">
          <mxGeometry x="250" y="150" width="100" height="60" as="geometry" />
        </mxCell>
        <mxCell id="gC0QYWkLjpjmnDlQ5VpR-20" value="" style="outlineConnect=0;dashed=0;verticalLabelPosition=bottom;verticalAlign=top;align=center;html=1;shape=mxgraph.aws3.classic_load_balancer;fillColor=#F58536;gradientColor=none;direction=south;" vertex="1" parent="1">
          <mxGeometry x="340" y="370" width="180" height="69" as="geometry" />
        </mxCell>
        <mxCell id="gC0QYWkLjpjmnDlQ5VpR-22" value="ELASTIC WEB BALANCER " style="text;html=1;align=center;verticalAlign=middle;resizable=0;points=[];autosize=1;strokeColor=none;fillColor=none;" vertex="1" parent="1">
          <mxGeometry x="350" y="350" width="170" height="30" as="geometry" />
        </mxCell>
        <mxCell id="gC0QYWkLjpjmnDlQ5VpR-25" value="" style="endArrow=classic;startArrow=classic;html=1;rounded=0;entryX=0.394;entryY=0.893;entryDx=0;entryDy=0;entryPerimeter=0;exitX=0.418;exitY=-0.167;exitDx=0;exitDy=0;exitPerimeter=0;" edge="1" parent="1" source="gC0QYWkLjpjmnDlQ5VpR-22" target="gC0QYWkLjpjmnDlQ5VpR-2">
          <mxGeometry width="50" height="50" relative="1" as="geometry">
            <mxPoint x="425" y="370" as="sourcePoint" />
            <mxPoint x="475" y="320" as="targetPoint" />
          </mxGeometry>
        </mxCell>
        <mxCell id="gC0QYWkLjpjmnDlQ5VpR-28" style="edgeStyle=orthogonalEdgeStyle;rounded=0;orthogonalLoop=1;jettySize=auto;html=1;exitX=1;exitY=1;exitDx=0;exitDy=0;exitPerimeter=0;" edge="1" parent="1" source="gC0QYWkLjpjmnDlQ5VpR-26">
          <mxGeometry relative="1" as="geometry">
            <mxPoint x="100" y="520" as="targetPoint" />
          </mxGeometry>
        </mxCell>
        <mxCell id="gC0QYWkLjpjmnDlQ5VpR-26" value="" style="strokeWidth=2;html=1;shape=mxgraph.flowchart.annotation_2;align=left;labelPosition=right;pointerEvents=1;direction=south;" vertex="1" parent="1">
          <mxGeometry x="100" y="439" width="660" height="81" as="geometry" />
        </mxCell>
        <mxCell id="gC0QYWkLjpjmnDlQ5VpR-27" value="" style="endArrow=none;html=1;rounded=0;exitX=1;exitY=0.5;exitDx=0;exitDy=0;exitPerimeter=0;" edge="1" parent="1" source="gC0QYWkLjpjmnDlQ5VpR-26">
          <mxGeometry width="50" height="50" relative="1" as="geometry">
            <mxPoint x="430" y="510" as="sourcePoint" />
            <mxPoint x="430" y="470" as="targetPoint" />
          </mxGeometry>
        </mxCell>
        <mxCell id="gC0QYWkLjpjmnDlQ5VpR-29" value="" style="rounded=1;whiteSpace=wrap;html=1;" vertex="1" parent="1">
          <mxGeometry x="20" y="520" width="170" height="160" as="geometry" />
        </mxCell>
        <mxCell id="gC0QYWkLjpjmnDlQ5VpR-30" value="" style="rounded=1;whiteSpace=wrap;html=1;" vertex="1" parent="1">
          <mxGeometry x="345" y="510" width="170" height="160" as="geometry" />
        </mxCell>
        <mxCell id="gC0QYWkLjpjmnDlQ5VpR-31" value="" style="rounded=1;whiteSpace=wrap;html=1;" vertex="1" parent="1">
          <mxGeometry x="660" y="520" width="170" height="160" as="geometry" />
        </mxCell>
        <mxCell id="gC0QYWkLjpjmnDlQ5VpR-32" value="SERVER 0 " style="text;html=1;align=center;verticalAlign=middle;whiteSpace=wrap;rounded=0;" vertex="1" parent="1">
          <mxGeometry x="60" y="690" width="70" height="30" as="geometry" />
        </mxCell>
        <mxCell id="gC0QYWkLjpjmnDlQ5VpR-33" value="SERVER 1 " style="text;html=1;align=center;verticalAlign=middle;whiteSpace=wrap;rounded=0;" vertex="1" parent="1">
          <mxGeometry x="380" y="690" width="70" height="30" as="geometry" />
        </mxCell>
        <mxCell id="gC0QYWkLjpjmnDlQ5VpR-34" value="SERVER 2 " style="text;html=1;align=center;verticalAlign=middle;whiteSpace=wrap;rounded=0;" vertex="1" parent="1">
          <mxGeometry x="710" y="690" width="70" height="30" as="geometry" />
        </mxCell>
        <mxCell id="gC0QYWkLjpjmnDlQ5VpR-35" value="" style="sketch=0;outlineConnect=0;fontColor=#232F3E;gradientColor=none;fillColor=#232F3D;strokeColor=none;dashed=0;verticalLabelPosition=bottom;verticalAlign=top;align=center;html=1;fontSize=12;fontStyle=0;aspect=fixed;pointerEvents=1;shape=mxgraph.aws4.servers;" vertex="1" parent="1">
          <mxGeometry x="50" y="540" width="30" height="30" as="geometry" />
        </mxCell>
        <mxCell id="gC0QYWkLjpjmnDlQ5VpR-36" value="" style="sketch=0;outlineConnect=0;fontColor=#232F3E;gradientColor=none;fillColor=#232F3D;strokeColor=none;dashed=0;verticalLabelPosition=bottom;verticalAlign=top;align=center;html=1;fontSize=12;fontStyle=0;aspect=fixed;pointerEvents=1;shape=mxgraph.aws4.servers;" vertex="1" parent="1">
          <mxGeometry x="360" y="540" width="30" height="30" as="geometry" />
        </mxCell>
        <mxCell id="gC0QYWkLjpjmnDlQ5VpR-37" value="" style="sketch=0;outlineConnect=0;fontColor=#232F3E;gradientColor=none;fillColor=#232F3D;strokeColor=none;dashed=0;verticalLabelPosition=bottom;verticalAlign=top;align=center;html=1;fontSize=12;fontStyle=0;aspect=fixed;pointerEvents=1;shape=mxgraph.aws4.servers;" vertex="1" parent="1">
          <mxGeometry x="680" y="540" width="30" height="30" as="geometry" />
        </mxCell>
        <mxCell id="gC0QYWkLjpjmnDlQ5VpR-38" value="" style="image;sketch=0;aspect=fixed;html=1;points=[];align=center;fontSize=12;image=img/lib/mscae/SQL_Servers.svg;" vertex="1" parent="1">
          <mxGeometry x="150" y="540" width="30" height="30" as="geometry" />
        </mxCell>
        <mxCell id="gC0QYWkLjpjmnDlQ5VpR-39" value="" style="image;sketch=0;aspect=fixed;html=1;points=[];align=center;fontSize=12;image=img/lib/mscae/SQL_Servers.svg;" vertex="1" parent="1">
          <mxGeometry x="465" y="540" width="30" height="30" as="geometry" />
        </mxCell>
        <mxCell id="gC0QYWkLjpjmnDlQ5VpR-40" value="" style="image;sketch=0;aspect=fixed;html=1;points=[];align=center;fontSize=12;image=img/lib/mscae/SQL_Servers.svg;" vertex="1" parent="1">
          <mxGeometry x="780" y="540" width="30" height="30" as="geometry" />
        </mxCell>
        <mxCell id="gC0QYWkLjpjmnDlQ5VpR-41" value="" style="sketch=0;pointerEvents=1;shadow=0;dashed=0;html=1;strokeColor=none;fillColor=#505050;labelPosition=center;verticalLabelPosition=bottom;verticalAlign=top;outlineConnect=0;align=center;shape=mxgraph.office.servers.application_server;" vertex="1" parent="1">
          <mxGeometry x="100" y="540" width="26" height="40" as="geometry" />
        </mxCell>
        <mxCell id="gC0QYWkLjpjmnDlQ5VpR-43" value="" style="sketch=0;pointerEvents=1;shadow=0;dashed=0;html=1;strokeColor=none;fillColor=#505050;labelPosition=center;verticalLabelPosition=bottom;verticalAlign=top;outlineConnect=0;align=center;shape=mxgraph.office.servers.application_server;" vertex="1" parent="1">
          <mxGeometry x="740" y="535" width="26" height="40" as="geometry" />
        </mxCell>
        <mxCell id="gC0QYWkLjpjmnDlQ5VpR-44" value="" style="sketch=0;pointerEvents=1;shadow=0;dashed=0;html=1;strokeColor=none;fillColor=#505050;labelPosition=center;verticalLabelPosition=bottom;verticalAlign=top;outlineConnect=0;align=center;shape=mxgraph.office.servers.application_server;" vertex="1" parent="1">
          <mxGeometry x="417" y="535" width="26" height="40" as="geometry" />
        </mxCell>
        <mxCell id="gC0QYWkLjpjmnDlQ5VpR-45" value="" style="sketch=0;pointerEvents=1;shadow=0;dashed=0;html=1;strokeColor=none;fillColor=#DF8C42;labelPosition=center;verticalLabelPosition=bottom;verticalAlign=top;align=center;outlineConnect=0;shape=mxgraph.veeam2.cdp;" vertex="1" parent="1">
          <mxGeometry x="78" y="610" width="34" height="34" as="geometry" />
        </mxCell>
        <mxCell id="gC0QYWkLjpjmnDlQ5VpR-46" value="" style="sketch=0;pointerEvents=1;shadow=0;dashed=0;html=1;strokeColor=none;fillColor=#DF8C42;labelPosition=center;verticalLabelPosition=bottom;verticalAlign=top;align=center;outlineConnect=0;shape=mxgraph.veeam2.cdp;" vertex="1" parent="1">
          <mxGeometry x="732" y="610" width="34" height="34" as="geometry" />
        </mxCell>
        <mxCell id="gC0QYWkLjpjmnDlQ5VpR-47" value="" style="sketch=0;pointerEvents=1;shadow=0;dashed=0;html=1;strokeColor=none;fillColor=#DF8C42;labelPosition=center;verticalLabelPosition=bottom;verticalAlign=top;align=center;outlineConnect=0;shape=mxgraph.veeam2.cdp;" vertex="1" parent="1">
          <mxGeometry x="413" y="610" width="34" height="34" as="geometry" />
        </mxCell>
      </root>
    </mxGraphModel>
  </diagram>
</mxfile>
